<svg
  aria-hidden="true"
  style="position: absolute; width: 0; height: 0; overflow: hidden"
  version="1.1"
  xmlns="http://www.w3.org/2000/svg"
  xmlns:xlink="http://www.w3.org/1999/xlink"
>
  <defs>
    <!-- header -->
    <symbol id="icon-burger" viewBox="0 0 40 40">
      <path
        fill="#F7FBFB"
        d="M6 10.5A1.5 1.5 0 0 0 4.5 12 1.5 1.5 0 0 0 6 13.5h28a1.5 1.5 0 0 0 1.5-1.5 1.5 1.5 0 0 0-1.5-1.5zm0 8A1.5 1.5 0 0 0 4.5 20 1.5 1.5 0 0 0 6 21.5h28a1.5 1.5 0 0 0 1.5-1.5 1.5 1.5 0 0 0-1.5-1.5zm0 7A1.5 1.5 0 0 0 4.5 27 1.5 1.5 0 0 0 6 28.5h28a1.5 1.5 0 0 0 1.5-1.5 1.5 1.5 0 0 0-1.5-1.5z"
      />
    </symbol>

    <symbol id="icon-logo" viewBox="0 0 60 60">
      <path
        fill="#F7FBFB"
        d="M53.091 12.042 34.91 2.119C33.586 1.397 31.843 1 30 1s-3.586.397-4.909 1.12L6.91 12.041C4.156 13.544 2 17.074 2 20.078v19.848c0 3.003 2.156 6.533 4.909 8.035l18.182 9.92C26.414 58.603 28.157 59 30 59s3.586-.398 4.909-1.119l18.182-9.924C55.844 46.455 58 42.925 58 39.92V20.073c0-2.996-2.156-6.529-4.909-8.031ZM7.924 46.294c-2.109-1.15-3.891-4.068-3.891-6.371V31.44c6.474-.482 10.308 1.14 15.097 3.177 4.309 1.834 9.49 4.035 17.957 5.22-1.582.288-3.18.551-4.771.813-8.647 1.426-16.824 2.784-21.295 7.333l-3.097-1.69ZM35.236 29.03c-3.907 1.468-8.996 2.784-16.521 3.308-3.328-1.397-6.495-2.578-10.644-2.85L21.896 16.42l10.218 9.657 3.122 2.952Zm-.966-3.63 9.941-9.396 7.472 7.063c-4.3.37-7.312 1.81-10.649 3.416-1.163.559-2.4 1.152-3.777 1.74L34.27 25.4Zm21.696 14.523c0 2.303-1.782 5.22-3.892 6.371L33.89 56.217c-1 .548-2.418.865-3.891.865-1.473 0-2.89-.314-3.892-.862l-13.284-7.252c4.101-3.828 11.761-5.092 19.841-6.425 9.109-1.5 18.486-3.05 23.302-8.609v5.989Zm0-9.58c-2.137 4.382-7 6.68-12.793 8.19-9.981-.685-15.863-2.64-20.684-4.608 9.858-1.116 15.135-3.651 19.465-5.733 4.264-2.051 7.68-3.683 14.012-3.217v5.368Zm0-7.295a31.953 31.953 0 0 0-1.505-.073l-9.53-9.008a1.022 1.022 0 0 0-.33-.209 1.067 1.067 0 0 0-1.107.209L32.836 24.04l-10.22-9.658a1.021 1.021 0 0 0-.33-.208 1.067 1.067 0 0 0-1.108.208L5.238 29.452a31.91 31.91 0 0 0-1.2.06V20.08c0-2.303 1.782-5.222 3.891-6.372l18.184-9.923c1.003-.548 2.422-.862 3.892-.862 1.47 0 2.89.314 3.892.862l18.183 9.923c2.11 1.151 3.892 4.069 3.892 6.372l-.006 2.969Z"
      />
    </symbol>

    <!-- social -->

    <symbol id="icon-telegram" viewBox="0 0 40 40">
      <path
        d="M19.99 3.333a16.667 16.667 0 1 0 0 33.334 16.667 16.667 0 0 0 0-33.334Zm5.3 25.254a1.176 1.176 0 0 1-1.67.587l-4.525-3.517-2.903 2.68a.5.5 0 0 1-.475.065l.556-4.982.017.015.012-.098s8.141-7.413 8.473-7.729c.337-.315.225-.383.225-.383.02-.383-.602 0-.602 0l-10.788 6.94-4.492-1.53s-.69-.247-.755-.792c-.068-.54.777-.833.777-.833l17.862-7.097s1.468-.653 1.468.43l-3.18 16.244Z"
      />
    </symbol>

    <symbol id="icon-instadram" viewBox="0 0 40 40">
      <path
        d="M13 3.333h14c5.333 0 9.667 4.334 9.667 9.667v14A9.667 9.667 0 0 1 27 36.667H13c-5.333 0-9.667-4.334-9.667-9.667V13A9.667 9.667 0 0 1 13 3.334Zm-.333 3.334a6 6 0 0 0-6 6v14.667c0 3.316 2.683 6 6 6h14.666a6 6 0 0 0 6-6V12.667c0-3.317-2.683-6-6-6H12.667Zm16.083 2.5a2.083 2.083 0 1 1 0 4.167 2.083 2.083 0 0 1 0-4.167Zm-8.75 2.5a8.333 8.333 0 1 1 0 16.667 8.333 8.333 0 0 1 0-16.667ZM20 15a5 5 0 1 0 0 10 5 5 0 0 0 0-10Z"
      />
    </symbol>

    <symbol id="icon-facebook" viewBox="0 0 40 40">
      <path
        d="M20 3.4c-9.167 0-16.667 7.483-16.667 16.7 0 8.333 6.1 15.25 14.067 16.5V24.933h-4.233V20.1H17.4v-3.683c0-4.184 2.483-6.484 6.3-6.484 1.817 0 3.717.317 3.717.317v4.117h-2.1c-2.067 0-2.717 1.283-2.717 2.6V20.1h4.633l-.75 4.833H22.6V36.6a16.667 16.667 0 0 0 14.067-16.5c0-9.217-7.5-16.7-16.667-16.7Z"
      />
    </symbol>

    <symbol id="icon-turned" viewBox="0 0 40 40">
      <path
        fill="#5B86A1"
        d="M20 11.667C10.8 11.667 3.333 15.4 3.333 20c0 3.733 4.9 6.883 11.667 7.95v3.367c0 .75.9 1.116 1.417.583l4.65-4.65a.825.825 0 0 0 0-1.183l-4.65-4.65a.833.833 0 0 0-1.417.6v2.533c-5.25-.933-8.333-3.167-8.333-4.55 0-1.767 5.066-5 13.333-5s13.333 3.233 13.333 5c0 1.1-2 2.8-5.533 3.9a1.63 1.63 0 0 0-1.133 1.567c0 1.116 1.083 1.933 2.133 1.6 4.717-1.467 7.867-4.084 7.867-7.067 0-4.6-7.467-8.333-16.667-8.333Z"
      />
    </symbol>

    <symbol id="icon-copyright" viewBox="0 0 16 16">
      <path
        d="M8 1C4.14 1 1 4.14 1 8s3.14 7 7 7 7-3.14 7-7-3.14-7-7-7zm0 1.5c3.05 0 5.5 2.45 5.5 5.5s-2.45 5.5-5.5 5.5S2.5 11.05 2.5 8 4.95 2.5 8 2.5zM8 5C6.35 5 5 6.35 5 8s1.35 3 3 3 2.6-1.3 2.6-1.3a.75.75 0 0 0-.15-1.05.75.75 0 0 0-1.05.15s-.55.699-1.4.699-1.5-.65-1.5-1.5.65-1.5 1.5-1.5 1.4.699 1.4.699a.75.75 0 0 0 1.05.15.75.75 0 0 0 .15-1.05s-.95-1.3-2.6-1.3z"
      />
    </symbol>

    <symbol id="icon-location" viewBox="0 0 40 40">
      <path
        d="M20 3C13.366 3 8 8.32 8 14.9 8 23.825 20 37 20 37s12-13.175 12-22.1C32 8.32 26.634 3 20 3Zm0 16.15a4.304 4.304 0 0 1-3.03-1.245 4.232 4.232 0 0 1-1.256-3.005c0-1.127.452-2.208 1.255-3.005A4.304 4.304 0 0 1 20 10.65c1.138 0 2.228.448 3.031 1.245a4.232 4.232 0 0 1 1.256 3.005 4.232 4.232 0 0 1-1.256 3.005A4.304 4.304 0 0 1 20 19.15Z"
      />
    </symbol>

    <symbol id="icon-phone" viewBox="0 0 40 40">
      <path
        d="M26.77 2H13.23a4.306 4.306 0 0 0-2.991 1.198 4.024 4.024 0 0 0-1.24 2.893v27.818c0 1.085.447 2.126 1.24 2.893A4.305 4.305 0 0 0 13.231 38h13.538a4.305 4.305 0 0 0 2.992-1.198A4.024 4.024 0 0 0 31 33.909V6.091a4.024 4.024 0 0 0-1.24-2.893A4.305 4.305 0 0 0 26.77 2ZM20 36.364c-1.405 0-2.539-1.097-2.539-2.455s1.134-2.454 2.539-2.454c1.404 0 2.538 1.096 2.538 2.454S21.404 36.364 20 36.364Zm7.615-6.546h-15.23V6.91h15.23v22.91Z"
      />
    </symbol>

    <symbol id="icon-email" viewBox="0 0 40 40">
      <path
        d="M33.6 7H6.4c-1.87 0-3.383 1.463-3.383 3.25L3 29.75C3 31.538 4.53 33 6.4 33h27.2c1.87 0 3.4-1.462 3.4-3.25v-19.5C37 8.463 35.47 7 33.6 7Zm-.68 6.906L20.9 21.09a1.787 1.787 0 0 1-1.801 0l-12.02-7.183a1.429 1.429 0 0 1-.438-.363 1.357 1.357 0 0 1-.254-.499 1.322 1.322 0 0 1 .175-1.074 1.41 1.41 0 0 1 .4-.402 1.512 1.512 0 0 1 1.648-.002L20 18.376l11.39-6.81a1.511 1.511 0 0 1 1.648.002c.16.107.296.243.4.402a1.343 1.343 0 0 1 .174 1.074c-.048.181-.134.35-.253.5a1.43 1.43 0 0 1-.44.362Z"
      />
    </symbol>

    <symbol id="icon-" viewBox="0 0 40 40"></symbol>
  </defs>
</svg>
