<svg
  aria-hidden="true"
  style="position: absolute; width: 0; height: 0; overflow: hidden"
  version="1.1"
  xmlns="http://www.w3.org/2000/svg"
  xmlns:xlink="http://www.w3.org/1999/xlink"
>
  <defs>
    <!-- header -->

    <symbol id="icon-logo" viewBox="0 0 21 21">
      <path
        fill="#FCF1E0"
        d="m3.01 13 7.07-11.4.42-.442 5.4 3.6.037 2.17 1.32 2.15-5.83 9.24z"
      />
      <path
        fill="#FD9222"
        d="M10.2.413a.9.9 0 0 0-.561.406l-2.55 4.17a.9.9 0 0 0-.016.01.9.9 0 0 0-.004.02l-2.56 4.19a.9.9 0 0 0-.007.001.9.9 0 0 0-.002.016l-2.56 4.19a.9.9 0 0 0 .29 1.23l4.65 2.91a.9.9 0 0 0 .005.015.9.9 0 0 0 .027.004l4.62 2.89a.9.9 0 0 0 1.25-.295l6.2-10.1a.9.9 0 0 0-.29-1.23c-.951-.598-1.48-1.09-1.63-1.44s-.144-.729.427-1.66a.9.9 0 0 0-.291-1.23L10.878.56a.9.9 0 0 0-.686-.113zm.502 2.12 3.13 1.96-1.62 2.66-3.13-1.96zm4.65 2.91.264.164c-.363.876-.523 1.73-.203 2.47.313.727.91 1.24 1.6 1.73l-.15.248-3.13-1.96zm-7.22 1.29 3.13 1.96-1.63 2.67-3.13-1.96zm4.66 2.91 3.13 1.96-1.63 2.67-3.13-1.96zm-7.23 1.3 3.13 1.96-1.62 2.66-3.13-1.96zm4.65 2.91 3.13 1.96-1.62 2.66-3.13-1.96z"
      />
    </symbol>

    <symbol id="icon-burger" viewBox="0 0 28 28">
      <path
        fill="#111"
        d="M3.5 6a1 1 0 0 0-1 1 1 1 0 0 0 1 1h21a1 1 0 0 0 1-1 1 1 0 0 0-1-1zm0 7a1 1 0 0 0-1 1 1 1 0 0 0 1 1h21a1 1 0 0 0 1-1 1 1 0 0 0-1-1zm0 7a1 1 0 0 0-1 1 1 1 0 0 0 1 1h21a1 1 0 0 0 1-1 1 1 0 0 0-1-1z"
      />
    </symbol>

    <!-- social -->

    <symbol id="icon-" viewBox="0 0 40 40"></symbol>
  </defs>
</svg>
