<svg
  aria-hidden="true"
  style="position: absolute; width: 0; height: 0; overflow: hidden"
  version="1.1"
  xmlns="http://www.w3.org/2000/svg"
  xmlns:xlink="http://www.w3.org/1999/xlink"
>
  <defs>
    <symbol id="icon-logo" viewBox="0 0 44 44">
      <circle cx="22" cy="21" r="21" fill="#fff" />
      <path
        fill="#c5093d"
        d="M20.2 44c-1.17-.089-3.3-.487-4.45-.832-4.76-1.43-8.9-4.4-11.8-8.44l-.413-.583.55-.34c1.38-.852 2.22-2.01 2.7-3.74.179-.644.313-1.33.942-4.81.167-.922.4-2.21.518-2.87.118-.655.264-1.48.324-1.83.06-.352.154-.678.209-.723.055-.046.393-.095.751-.109l.651-.026.282-.926c.155-.51.31-1.06.344-1.21l.062-.287h-.845c-.666 0-.845-.026-.845-.124 0-.36.37-2.21.524-2.62.38-1.01 1.17-1.58 2.22-1.59.311-.002.674.038.807.088.3.115.298.118.723-1.25.178-.572.344-1.1.37-1.16.075-.195-.52-.31-1.6-.31-1.73-.002-2.89.461-4.06 1.63-1.08 1.07-1.5 2.04-1.95 4.46l-.156.837-1.16.052-.717 2.46h.681c.374 0 .7.02.724.043.042.042-.012.367-.365 2.21-.093.485-.293 1.56-.444 2.38-1 5.46-1.01 5.48-1.38 6.22-.22.439-.427.708-.715.928-.223.17-.432.279-.463.242-.117-.14-.695-1.51-.998-2.36-2.96-8.35-.64-17.6 5.93-23.6 3.17-2.9 7.38-4.91 11.5-5.49 2.41-.34 4.3-.338 6.66.006 4.59.669 8.96 2.9 12.3 6.27 1.27 1.29 2.19 2.44 2.97 3.71.32.525.327.55.167.55-.266 0-1.2.567-1.63.995-.545.537-.804.95-1.12 1.79-.25.667-.702 2.39-.798 3.06l-.06.419-.286-.251c-.502-.441-1.05-.648-1.84-.697-2.03-.127-3.41.85-4.19 2.98-.484 1.31-.915 3.56-.916 4.76 0 .977.102 1.42.452 1.94.442.657 1.03.966 2.23 1.16 1.2.193 2.65-.431 3.39-1.46l.186-.258.155.327c.344.725 1.43 1.37 2.36 1.41l.44.018.338-1.06c.186-.582.339-1.1.34-1.16 0-.055-.12-.15-.267-.211-.273-.113-.453-.376-.56-.815-.048-.203.746-5.15 1.19-7.43.15-.763.502-1.71.798-2.14.25-.365.886-.818 1.15-.818.153 0 .26.214.602 1.19.914 2.62 1.24 4.55 1.25 7.33.005 2.4-.171 3.83-.733 5.94-.814 3.06-2.63 6.44-4.71 8.74-2.84 3.15-6.11 5.25-10.1 6.52-.931.294-2.69.666-3.75.795-1.11.135-3.25.175-4.45.083zm-7.03-12.2c.012-.437.042-.879.065-.983.054-.234.27-.325.49-.206.144.078.17.212.191 1.04l.025.947h.706l.025-.991c.039-1.54-.102-1.7-1.45-1.67l-.78.016-.025 1.23c-.014.677-.004 1.28.02 1.35.031.08.16.111.378.093l.33-.028zm4.37.719c.463-.193.54-.347.291-.58-.172-.161-.244-.18-.39-.103-.379.203-.896.07-.896-.231 0-.086.203-.115.806-.115h.806l-.053-.444c-.095-.806-.577-1.21-1.34-1.12-.219.025-.482.119-.584.21-.51.455-.579 1.66-.118 2.12.378.378.965.484 1.48.268zm-.995-1.69c0-.126.255-.312.429-.312.111 0 .365.25.365.359 0 .045-.179.082-.397.082-.29 0-.397-.035-.397-.13zm3.8 1.72c.135 0 .169-.063.169-.309 0-.27-.027-.309-.221-.309-.217 0-.221-.012-.221-.7 0-.658.012-.701.198-.728.142-.02.206-.097.226-.271.024-.208-.004-.243-.193-.243-.197 0-.224-.04-.248-.375-.027-.373-.029-.375-.402-.402l-.375-.027v.355c0 .265-.045.379-.176.449-.097.052-.176.17-.176.265 0 .094.08.213.176.265.155.083.176.185.176.82 0 .526.04.784.142.93.158.226.459.375.637.316.065-.021.194-.039.287-.039zm2.44-.02c.04-.06.173-.403.297-.764l.225-.656.265.742c.262.732.269.742.563.742h.298l.376-1.19c.483-1.53.482-1.52.014-1.48l-.37.027-.172.694c-.189.767-.206.762-.5-.148-.189-.585-.2-.6-.47-.573-.262.025-.289.065-.508.729l-.232.702-.138-.481c-.076-.265-.165-.59-.197-.724-.053-.22-.096-.243-.456-.243-.467 0-.474-.138.075 1.61.345 1.1.36 1.12.606 1.12.14 0 .286-.049.325-.108zm5.25-.225c.241-.241.273-.337.306-.916.049-.854-.116-1.19-.696-1.43-.393-.161-.433-.163-.797-.024-.545.208-.729.55-.73 1.35 0 .505.037.683.185.882.27.364.548.482 1.04.441.331-.027.488-.096.696-.305zm-1.06-.478c-.058-.058-.106-.337-.106-.62 0-.452.024-.523.198-.59.364-.137.507.031.507.596 0 .517-.1.72-.353.72a.404.404 0 0 1-.247-.106zm6.05.355c.043-.661.214-.7.545-.121l.28.489h.435c.239 0 .435-.03.435-.066 0-.037-.198-.376-.441-.754-.243-.38-.441-.71-.441-.736 0-.026.179-.256.397-.512.218-.256.397-.49.397-.521 0-.031-.189-.055-.419-.053-.399.004-.436.025-.772.46l-.353.458-.05-1.89h-.7v3.72l.331-.028c.327-.027.331-.032.357-.439zm-2.89-.492c0-.473.03-.904.066-.957.101-.151.314-.196.493-.104.127.065.22.03.42-.161.14-.135.255-.276.255-.314 0-.15-.53-.342-.77-.28a4.086 4.086 0 0 1-.729.068l-.485.006-.025 1.19c-.013.652-.005 1.24.02 1.3.026.068.189.115.4.115h.356zm-14.9-4.74c1.03-.204 2.05-.74 2.75-1.44 1.01-1.01 1.52-2.3 1.81-4.54.17-1.31.17-1.9 0-2.47-.611-2.07-3.45-2.89-5.92-1.7-1.72.826-2.57 2.1-3.09 4.63-.313 1.51-.331 2.75-.049 3.5.39 1.03 1.17 1.69 2.35 1.99.79.199 1.29.208 2.15.037zm-1.45-2.15c-.621-.38-.754-1.15-.468-2.7.35-1.89.592-2.56 1.15-3.17.458-.497.977-.707 1.6-.647.903.087 1.24.817 1.05 2.27-.26 1.98-.656 3.22-1.22 3.83-.523.56-1.54.759-2.11.41zm11.6 2.06c1.82-.47 3.19-1.86 3.77-3.81.446-1.51.649-3.72.415-4.52-.274-.941-1.01-1.67-2.09-2.04-.792-.277-2.33-.274-3.16.006-2.36.796-3.59 2.74-3.98 6.29-.114 1.05-.02 1.81.295 2.43.466.919 1.06 1.38 2.21 1.7.717.2 1.63.18 2.54-.053zm-1.69-1.96c-.77-.387-.914-1.11-.58-2.92.326-1.77.567-2.43 1.13-3.07.721-.822 2.03-.873 2.5-.098.351.581.083 3.09-.492 4.6-.275.724-.855 1.33-1.44 1.5-.571.17-.741.166-1.12-.022zm9.63-.022c-.724-.44-.823-1.34-.381-3.42.31-1.46.588-2.11 1.15-2.67.467-.467.781-.572 1.51-.502.506.05.744.227.975.73.224.486.208 1.15-.06 2.52-.296 1.52-.58 2.27-1.07 2.81-.602.67-1.52.901-2.13.534z"
      />
    </symbol>

    <symbol id="icon-star" viewBox="0 0 16 16">
      <path
        d="M16 6.182 10.186 5.8 7.996.299l-2.189 5.5L0 6.183l4.454 3.782L2.993 15.7l5.004-3.163L13 15.7 11.54 9.964 16 6.182Z"
      />
    </symbol>

    <symbol id="icon-apple" viewBox="0 0 26 26">
      <path
        fill="#d6d6d8"
        d="M16.9 4.12c.828-1 1.41-2.36 1.38-3.75a.386.386 0 0 0-.447-.37c-1.22.186-2.57.947-3.41 1.93-.775.896-1.46 2.29-1.41 3.67a.383.383 0 0 0 .391.368c1.34-.038 2.67-.841 3.5-1.85z"
      />
      <path
        fill="#c2c2c4"
        d="M14 5.6C13.92 3.46 15.53.96 18.15.16a.39.39 0 0 0-.374-.156c-1.22.186-2.57.947-3.41 1.93-.775.896-1.46 2.29-1.41 3.67a.384.384 0 0 0 .391.368c.26-.007.519-.044.775-.105a.383.383 0 0 1-.12-.263z"
      />
      <path
        fill="#d6d6d8"
        d="M23.3 18.9c-.842-.424-3.17-1.89-3.19-5.13-.025-2.66 1.74-4.2 2.49-4.74a.386.386 0 0 0 .082-.551 5.616 5.616 0 0 0-2.05-1.63h.001a7.133 7.133 0 0 0-.37-.16c-3.52-1.39-5.74.738-7.08.738-1.03 0-2.62-1.16-4.3-1.13-2.21.032-4.25 1.29-5.39 3.26-1.75 3.04-1.17 7.18.19 10.4a15.25 15.25 0 0 0 1.457 2.705c1.09 1.58 2.4 3.36 4.11 3.29 1.65-.066 2.27-1.07 4.27-1.07 1.99 0 2.55 1.07 4.3 1.03 1.78-.034 2.9-1.61 3.98-3.2.956-1.4 1.48-2.76 1.69-3.37a.384.384 0 0 0-.19-.47z"
      />
      <path
        fill="#c2c2c4"
        d="M6.23 22.7c-.476-.689-.928-1.5-1.32-2.39l-.137-.315c-1.35-3.21-1.95-7.37-.19-10.4 1.05-1.83 2.87-3.04 4.88-3.23a3.92 3.92 0 0 0-.543-.03c-2.21.033-4.25 1.29-5.39 3.26-1.75 3.04-1.17 7.18.19 10.4A15.25 15.25 0 0 0 5.177 22.7c1.09 1.58 2.4 3.36 4.11 3.29.169-.006.326-.023.476-.047-1.44-.292-2.57-1.85-3.54-3.25z"
      />
    </symbol>

    <symbol id="icon-play" viewBox="0 0 26 26">
      <path
        fill="#9dc6fb"
        d="M18.4 13 2.4.6a2.65 2.65 0 0 0-1.03 2.11v20.6c0 .888.413 1.63 1.03 2.11z"
        clip-path="url(#a)"
      />
      <path
        fill="#ffe07d"
        d="m23.3 10.7-3.87-2.24-3.4.425-1.17 4.14.592 3.96 3.97.6 3.87-2.24c1.79-1.03 1.79-3.62 0-4.65z"
        clip-path="url(#b)"
      />
      <path
        fill="#dd5790"
        d="M19.4 8.44 5.4.37a2.664 2.664 0 0 0-3 .214l12.4 12.4z"
        clip-path="url(#c)"
      />
      <path
        fill="#95d6a4"
        d="m19.4 17.6-4.56-4.56-12.4 12.4c.814.637 1.98.804 3 .214z"
        clip-path="url(#d)"
      />
      <path
        fill="#80b4fb"
        d="M4.41 2.69c0-.18.017-.355.05-.522L2.41.578a2.648 2.648 0 0 0-1.03 2.11v20.6c0 .888.412 1.63 1.03 2.11l2.05-1.59a2.743 2.743 0 0 1-.05-.522z"
        clip-path="url(#e)"
      />
      <path
        fill="#da387d"
        d="M5.59.466 5.412.363a2.668 2.668 0 0 0-3 .214l2 2c.032-.84.436-1.54 1.02-2 .05-.039.102-.076.154-.111z"
        clip-path="url(#f)"
      />
      <path
        fill="#78c2a4"
        d="M5.44 25.4v-.001.001a2.628 2.628 0 0 1-1.02-2l-2 2c.813.637 1.98.804 3 .214l.177-.103a2.585 2.585 0 0 1-.153-.111z"
        clip-path="url(#g)"
      />
      <defs>
        <clipPath id="g">
          <path fill="#fff" d="M0 26h26V0H0z" />
        </clipPath>
        <clipPath id="f">
          <path fill="#fff" d="M0 26h26V0H0z" />
        </clipPath>
        <clipPath id="e">
          <path fill="#fff" d="M0 26h26V0H0z" />
        </clipPath>
        <clipPath id="d">
          <path fill="#fff" d="M0 26h26V0H0z" />
        </clipPath>
        <clipPath id="c">
          <path fill="#fff" d="M0 26h26V0H0z" />
        </clipPath>
        <clipPath id="b">
          <path fill="#fff" d="M0 26h26V0H0z" />
        </clipPath>
        <clipPath id="a">
          <path fill="#fff" d="M0 26h26V0H0z" />
        </clipPath>
      </defs>
    </symbol>

    <symbol id="icon-arrow" viewBox="0 0 10 16">
      <path
        d="M8 .75a1.25 1.25 0 0 0-.885.365l-6 6a1.25 1.25 0 0 0 0 1.77l6 6a1.25 1.25 0 0 0 1.77 0 1.25 1.25 0 0 0 0-1.77l-5.12-5.12 5.12-5.12a1.25 1.25 0 0 0 0-1.77A1.25 1.25 0 0 0 8 .74z"
      />
    </symbol>

    <!-- social -->

    <symbol id="icon-instagram" viewBox="0 0 21 21">
      <path
        d="M10.5 21C16.299 21 21 16.299 21 10.5S16.299 0 10.5 0 0 4.701 0 10.5 4.701 21 10.5 21z"
        fill="#6C27B3"
      />
      <path
        d="M15.369 5.452c-1.255.159-2.563.153-3.88.028-1.837-.141-4.524-.99-5.514.707-1.59 2.717-.806 6.195-.436 9.273l5.527 5.525a10.5 10.5 0 0 0 9.919-9.917l-5.616-5.616z"
        fill="#501A96"
      />
      <path
        d="M12.93 4.49H8.07a3.585 3.585 0 0 0-3.58 3.58v4.86a3.585 3.585 0 0 0 3.58 3.58h4.86a3.585 3.585 0 0 0 3.58-3.58V8.07a3.585 3.585 0 0 0-3.58-3.58zm2.37 8.44a2.372 2.372 0 0 1-2.37 2.371H8.07a2.372 2.372 0 0 1-2.37-2.372V8.071a2.372 2.372 0 0 1 2.37-2.372h4.86a2.372 2.372 0 0 1 2.37 2.372v4.858z"
        fill="#fff"
      />
      <path
        d="M10.5 7.391a3.112 3.112 0 0 0-3.109 3.11 3.112 3.112 0 0 0 3.109 3.108 3.112 3.112 0 0 0 3.109-3.109A3.112 3.112 0 0 0 10.5 7.391zm0 5.009a1.9 1.9 0 1 1 0-3.8 1.9 1.9 0 0 1 0 3.8z"
        fill="#fff"
      />
      <path
        d="M14.36 7.415a.745.745 0 1 1-1.49 0 .745.745 0 0 1 1.49 0z"
        fill="#D1D1D1"
      />
      <path
        d="M12.93 4.49h-2.454V5.7h2.453a2.372 2.372 0 0 1 2.372 2.37v4.86a2.372 2.372 0 0 1-2.372 2.371h-2.453v1.21h2.453a3.585 3.585 0 0 0 3.581-3.582V8.071a3.585 3.585 0 0 0-3.58-3.581z"
        fill="#D1D1D1"
      />
      <path
        d="M10.5 7.391h-.024v1.21h.024a1.9 1.9 0 0 1 0 3.799h-.024v1.208l.024.001a3.112 3.112 0 0 0 3.109-3.109A3.112 3.112 0 0 0 10.5 7.391z"
        fill="#D1D1D1"
      />
    </symbol>

    <symbol id="icon-facebook" viewBox="0 0 21 21">
      <path
        d="M21 10.5C21 16.3 16.3 21 10.5 21S0 16.3 0 10.5 4.7 0 10.5 0 21 4.7 21 10.5z"
        fill="#4A7AFF"
      />
      <path
        d="M10.96 20.99C16.547 20.747 21 16.144 21 10.5l-.002-.122-7.288-7.289-7.793 8.146 4.33 4.33-1.997 2.714 2.71 2.71z"
        fill="#0053BF"
      />
      <path
        d="M13.71 3.089v2.378s-2.73-.397-2.73 1.364v1.762h2.466l-.308 2.685H10.98v7H8.25v-7l-2.333-.044V8.593h2.29V6.567s-.152-3.013 2.817-3.566c1.233-.23 2.686.088 2.686.088z"
        fill="#fff"
      />
      <path
        d="M13.71 5.467V3.089S12.257 2.77 11.024 3a4.16 4.16 0 0 0-.539.137v15.14h.495v-7h2.157l.309-2.685H10.98V6.83c0-1.76 2.73-1.364 2.73-1.364z"
        fill="#DCE1EB"
      />
    </symbol>

    <symbol id="icon-twitter" viewBox="0 0 21 21">
      <g clip-path="url(#a)">
        <path
          d="M10.5 21C16.3 21 21 16.299 21 10.5S16.3 0 10.5 0C4.703 0 .002 4.701.002 10.5S4.702 21 10.501 21z"
          fill="#55ACEE"
        />
        <path
          d="M16.932 7.546c-.45.2-.934.335-1.442.395.518-.31.916-.802 1.104-1.388A5.023 5.023 0 0 1 15 7.16a2.51 2.51 0 0 0-4.277 2.29A7.124 7.124 0 0 1 5.55 6.828a2.51 2.51 0 0 0 .777 3.35 2.492 2.492 0 0 1-1.137-.313v.032c0 1.216.865 2.23 2.013 2.46a2.503 2.503 0 0 1-1.133.044 2.512 2.512 0 0 0 2.344 1.743A5.035 5.035 0 0 1 4.7 15.183a7.099 7.099 0 0 0 3.846 1.128c4.617 0 7.141-3.825 7.141-7.141 0-.11-.002-.218-.007-.325a5.09 5.09 0 0 0 1.253-1.299z"
          fill="#F1F2F2"
        />
      </g>
      <defs>
        <clipPath id="a"><path fill="#fff" d="M0 0h21v21H0z" /></clipPath>
      </defs>
    </symbol>

    <symbol id="icon-youtube" viewBox="0 0 21 21">
      <path
        d="M10.5 21C16.299 21 21 16.299 21 10.5S16.299 0 10.5 0 0 4.701 0 10.5 4.701 21 10.5 21z"
        fill="#D22215"
      />
      <path
        d="M15.785 6.987c-.315.096-.643.178-.972.26-2.333.495-5.444-.848-6.788 1.344-1.12 1.743-1.474 3.924-2.749 5.482l6.808 6.808a10.507 10.507 0 0 0 8.797-8.798l-5.096-5.096z"
        fill="#A81411"
      />
      <path
        d="M14.013 6.248H6.987a2.496 2.496 0 0 0-2.496 2.496v3.512a2.496 2.496 0 0 0 2.496 2.496h7.026a2.496 2.496 0 0 0 2.496-2.496V8.744a2.496 2.496 0 0 0-2.496-2.496zm-1.688 4.423-3.286 1.567a.132.132 0 0 1-.189-.119V8.887c0-.099.104-.163.192-.118l3.286 1.665c.098.05.096.19-.003.237z"
        fill="#fff"
      />
      <path
        d="M14.013 6.248h-3.584v3.224l1.899.962c.098.05.096.19-.003.237l-1.896.904v3.177h3.584a2.496 2.496 0 0 0 2.496-2.496V8.744a2.496 2.496 0 0 0-2.496-2.496z"
        fill="#D1D1D1"
      />
    </symbol>
  </defs>
</svg>
