<svg viewBox="0 0 40 40" xmlns="http://www.w3.org/2000/svg">
  <path
    d="M10 13.1c1.42 0 2.58-1.16 2.58-2.58 0-1.42-1.16-2.58-2.58-2.58-1.42 0-2.58 1.16-2.58 2.58 0 1.42 1.16 2.58 2.58 2.58zM10 15.4c-.519 0-1.02-.081-1.49-.231l-2.34 1.32v1.56h7.66v-1.56l-2.34-1.32c-.47.15-.971.231-1.49.231zM40 29.9v-3.84H0v3.84h16.2v3.03l-2.38 2.27h-3.29v2.34h18.8V35.2h-3.29l-2.38-2.27V29.9h16.2z"
    fill="#4472E8"
  />
  <path
    d="M40 23.7V2.4H0v21.3h40zM23.6 6.8h12.6v2.34H23.6V6.8zm0 5h10.1v2.34H23.6V11.8zm0 5h12.6v2.34H23.6V16.8zm-4.86-10h2.49v2.34h-2.49V6.8zm0 5h2.49v2.34h-2.49V11.8zm0 5h2.49v2.34h-2.49V16.8zm-14.9-1.68 2.48-1.4c-.763-.867-1.23-2-1.23-3.25a4.93 4.93 0 0 1 4.92-4.92 4.93 4.93 0 0 1 4.92 4.92c0 1.24-.464 2.38-1.23 3.25l2.48 1.4v5.27H3.88v-5.27z"
    fill="#4472E8"
  />
</svg>
