<svg viewBox="0 0 40 40" xmlns="http://www.w3.org/2000/svg">
  <path
    d="m39.3 12.3-3.31-3.31 2.49-2.49a1.17 1.17 0 0 0 0-1.657l-3.33-3.33c-.44-.439-1.22-.439-1.66 0L31 4.003 27.69.693a2.339 2.339 0 0 0-3.31 0 2.339 2.339 0 0 0 0 3.31l11.6 11.6c.915.915 2.4.915 3.31 0 .915-.915.915-2.4 0-3.31zM15.6 36 4 24.4a2.339 2.339 0 0 0-3.31 0 2.339 2.339 0 0 0 0 3.31L4 31.02 1.52 33.5a1.17 1.17 0 0 0 0 1.656l3.33 3.33c.229.229.529.343.829.343.3 0 .6-.114.829-.343l2.48-2.48 3.31 3.31c.915.915 2.4.915 3.31 0 .915-.915.915-2.4 0-3.31zM21.1 13.9l-7.11 7.14 4.97 4.97 7.11-7.14zM36 18.9 21.1 4a2.339 2.339 0 0 0-3.31 0 2.339 2.339 0 0 0 0 3.31l14.9 14.9c.915.915 2.4.915 3.31 0 .915-.915.915-2.4 0-3.31zM22.2 32.7 7.3 17.8a2.339 2.339 0 0 0-3.31 0 2.339 2.339 0 0 0 0 3.31l14.9 14.9c.915.915 2.4.915 3.31 0 .915-.915.915-2.4 0-3.31z"
    fill="#4472e8"
  />
</svg>
