<svg fill="none" viewBox="0 0 50 50" xmlns="http://www.w3.org/2000/svg">
  <path
    d="M13.3 12.4A18.65 18.65 0 0 1 25 8.3c4.43 0 8.5 1.53 11.7 4.1l3.03-3.03 2.95 2.95-3.03 3.03c2.2 2.76 3.58 6.08 3.98 9.59a18.59 18.59 0 0 1-1.73 10.2 18.773 18.773 0 0 1-6.92 7.75 18.727 18.727 0 0 1-19.96 0 18.712 18.712 0 0 1-6.92-7.75 18.65 18.65 0 0 1-1.73-10.2c.397-3.51 1.78-6.83 3.98-9.59l-3.03-3.02 2.95-2.95 3.03 3.03v-.002zM27.1 25v-9.39l-10.4 13.6h6.25v9.38l10.4-13.5H27.1zM16.7 2.1h16.7v4.17H16.7V2.1z"
    fill="#4572E8"
  />
</svg>
