<svg fill="none" viewBox="0 0 50 50" xmlns="http://www.w3.org/2000/svg">
  <path
    d="M21.2 5h7.5a3.755 3.755 0 0 1 3.54 2.498h3.96a3.756 3.756 0 0 1 3.75 3.75v30a3.756 3.756 0 0 1-3.75 3.75H13.7a3.756 3.756 0 0 1-3.75-3.75v-30a3.756 3.756 0 0 1 3.75-3.75h3.96A3.755 3.755 0 0 1 21.2 5zm-1.25 3.75A1.252 1.252 0 0 0 21.2 10h7.5a1.25 1.25 0 1 0 0-2.5h-7.5a1.25 1.25 0 0 0-1.25 1.25zm11.9 14.4a1.875 1.875 0 0 0 1.879-1.879 1.875 1.875 0 0 0-1.879-1.879 1.875 1.875 0 0 0-1.879 1.879 1.875 1.875 0 0 0 1.879 1.879zm0 7.5a1.875 1.875 0 0 0 1.879-1.879 1.875 1.875 0 0 0-1.879-1.879 1.875 1.875 0 0 0-1.879 1.879 1.875 1.875 0 0 0 1.879 1.879zm-1.88 5.62a1.875 1.875 0 0 0 1.879 1.879 1.875 1.875 0 0 0 1.879-1.879 1.875 1.875 0 0 0-1.879-1.879 1.875 1.875 0 0 0-1.879 1.879zm-2.5-15a1.25 1.25 0 0 0-1.25-1.25h-8.75a1.25 1.25 0 1 0 0 2.5h8.75a1.25 1.25 0 0 0 1.25-1.25zm0 7.5a1.25 1.25 0 0 0-1.25-1.25h-8.75a1.25 1.25 0 1 0 0 2.5h8.75a1.25 1.25 0 0 0 1.25-1.25zm0 7.5a1.25 1.25 0 0 0-1.25-1.25h-8.75a1.25 1.25 0 1 0 0 2.5h8.75a1.25 1.25 0 0 0 1.25-1.25z"
    fill="#4472E8"
  />
</svg>
