<svg xmlns="http://www.w3.org/2000/svg" fill="none" viewBox="0 0 71 60">
  <path fill="#c2d8fe" fill-rule="evenodd" d="M70.7 9.37c-10.6 5.21-15.9 11.3-15.9 18.4 4.51.521 8.24 2.36 11.2 5.53 2.95 3.17 4.43 6.83 4.43 11 0 4.43-1.43 8.16-4.3 11.2-2.86 3.04-6.47 4.56-10.8 4.56-4.86 0-9.07-1.97-12.6-5.92-3.56-3.95-5.34-8.74-5.34-14.4 0-16.9 9.46-30.2 28.4-39.7zm-37.4 0c-10.7 5.21-16 11.3-16 18.4 4.6.521 8.37 2.36 11.3 5.53 2.95 3.17 4.43 6.83 4.43 11 0 4.43-1.45 8.16-4.36 11.2-2.91 3.04-6.53 4.56-10.9 4.56-4.86 0-9.05-1.97-12.6-5.92C1.66 50.19-.1 45.4-.1 39.74c0-16.9 9.42-30.2 28.2-39.7z" clip-rule="evenodd"/>
</svg>
