<svg
  aria-hidden="true"
  style="position: absolute; width: 0; height: 0; overflow: hidden"
  version="1.1"
  xmlns="http://www.w3.org/2000/svg"
  xmlns:xlink="http://www.w3.org/1999/xlink"
>
  <defs>
    <symbol id="icon-arrow" viewBox="0 0 45 45">
      <path
        d="M31.5 11.25 20.25 22.5 31.5 33.75l-2.25 4.5L13.5 22.5 29.25 6.75l2.25 4.5Z"
      />
    </symbol>

    <symbol id="icon-small-arrow" viewBox="0 0 20 20">
      <path
        d="M0 10.8h14.7l-4.41 4.41 1.18 1.18 6.42-6.42-6.42-6.42-1.18 1.18 4.41 4.41H0v1.67z"
      />
    </symbol>

    <symbol id="icon-trophy" viewBox="0 0 30 30">
      <path
        d="m8.81 14c-4.99-0.469-8.81-4.61-8.81-9.63v-1.76c0-1.45 1.18-2.64 2.64-2.64 1.45 0 2.64 1.18 2.64 2.64 0 0.485 0.394 0.879 0.879 0.879h1.82c0.486 0 0.879 0.393 0.879 0.879s-0.393 0.879-0.879 0.879h-1.82c-1.45 0-2.64-1.18-2.64-2.64 0-0.485-0.394-0.879-0.879-0.879s-0.879 0.394-0.879 0.879v1.76c0 4.11 3.14 7.49 7.22 7.87 0.483 0.0454 0.838 0.475 0.793 0.958-0.0455 0.482-0.472 0.837-0.958 0.793z"
        fill="#ffbe40"
      />
      <path
        d="m20.3 13.2c-0.0446-0.483 0.31-0.912 0.793-0.958 4.08-0.383 7.16-3.77 7.16-7.87v-1.76c0-0.485-0.394-0.879-0.879-0.879-0.485 0-0.879 0.394-0.879 0.879 0 1.45-1.18 2.64-2.64 2.64h-1.76c-0.486 0-0.879-0.393-0.879-0.879s0.393-0.879 0.879-0.879h1.76c0.485 0 0.879-0.394 0.879-0.879 0-1.45 1.18-2.64 2.64-2.64 1.45 0 2.64 1.18 2.64 2.64v1.76c0 5.02-3.76 9.16-8.75 9.63-0.486 0.0442-0.912-0.311-0.958-0.793z"
        fill="#ff9f40"
      />
      <path
        d="m22.1 0h-14.1c-0.486 0-0.879 0.393-0.879 0.879v8.79c0 3.36 2.14 6.32 5.27 7.43v6.75h5.27v-6.75c3.14-1.11 5.33-4.07 5.33-7.43v-8.79c0-0.486-0.393-0.879-0.879-0.879z"
        fill="#ffdf40"
      />
      <path
        d="m17.6 17.1c3.14-1.11 5.33-4.07 5.33-7.43v-8.79c0-0.486-0.393-0.879-0.879-0.879h-7.09v23.8h2.64z"
        fill="#ffbe40"
      />
      <path
        d="m19.5 6.78c-0.104-0.318-0.378-0.55-0.71-0.598l-2.07-0.3-0.924-1.87c-0.148-0.3-0.468-0.451-0.788-0.451-0.32 0-0.64 0.15-0.788 0.451l-0.924 1.87-2.07 0.3c-0.331 0.048-0.606 0.28-0.71 0.598-0.103 0.318-0.0171 0.667 0.222 0.9l1.5 1.46-0.353 2.06c-0.0567 0.33 0.079 0.663 0.349 0.859 0.27 0.197 0.633 0.223 0.925 0.0669l1.85-0.971 1.85 0.971c0.292 0.155 0.653 0.132 0.925-0.067 0.27-0.196 0.406-0.53 0.349-0.859l-0.353-2.06 1.5-1.46c0.239-0.233 0.325-0.583 0.222-0.9z"
        fill="#fff"
      />
      <path
        d="m17.8 12.1c0.27-0.197 0.406-0.53 0.349-0.859l-0.353-2.06 1.5-1.46c0.24-0.233 0.325-0.583 0.222-0.9-0.104-0.318-0.379-0.55-0.71-0.598l-2.07-0.3-0.924-1.87c-0.148-0.3-0.468-0.451-0.788-0.451v7.59l1.85 0.971c0.292 0.155 0.653 0.132 0.925-0.0669z"
        fill="#fff"
      />
      <path
        d="m22 26.5h-0.879v-2.64c0-0.486-0.393-0.879-0.879-0.879h-10.5c-0.486 0-0.879 0.393-0.879 0.879v2.64h-0.879c-0.486 0-0.879 0.393-0.879 0.879v1.76c0 0.486 0.393 0.879 0.879 0.879h14.1c0.486 0 0.879-0.393 0.879-0.879v-1.76c0-0.486-0.393-0.879-0.879-0.879z"
        fill="#fff"
      />
      <path
        d="m22.9 29.1v-1.76c0-0.486-0.393-0.879-0.879-0.879h-0.879v-2.64c0-0.486-0.393-0.879-0.879-0.879h-5.27v7.03h7.03c0.486 0 0.879-0.393 0.879-0.879z"
        fill="#fff"
      />
      <path
        d="m16.8 25.6h-3.52c-0.486 0-0.879 0.393-0.879 0.879s0.393 0.879 0.879 0.879h3.52c0.486 0 0.879-0.393 0.879-0.879s-0.393-0.879-0.879-0.879z"
        fill="#ffdf40"
      />
      <path
        d="m17.6 26.5c0-0.486-0.393-0.879-0.879-0.879h-1.76v1.76h1.76c0.486 0 0.879-0.393 0.879-0.879z"
        fill="#ffdf40"
      />
    </symbol>

    <symbol id="icon-hours" viewBox="0 0 30 30">
      <path
        fill="#ffdf40"
        d="M30 15c0 8.28-6.72 15-15 15-8.28 0-15-6.72-15-15C0 6.72 6.72 0 15 0c8.28 0 15 6.72 15 15z"
      />
      <path
        fill="#ff9f40"
        d="M30 15c0-1.52-.226-2.98-.645-4.36l-4.12-4.12-1.68.961a10.932 10.932 0 0 0-.341-.34 11.35 11.35 0 0 0-8.22-3.51c-6.27 0-11.4 5.1-11.4 11.4 0 3.23 1.35 6.15 3.52 8.22 0 0 4.45 4.46 6.74 6.74.37.027.742.041 1.12.041 8.28 0 15-6.72 15-15z"
      />
      <path
        fill="#fff"
        d="M25.1 15c0 5.58-4.52 10.1-10.1 10.1S4.9 20.58 4.9 15 9.42 4.9 15 4.9 25.1 9.42 25.1 15z"
      />
      <path
        fill="#fff"
        d="M25.1 15c0 5.58-4.52 10.1-10.1 10.1V4.9a10.099 10.099 0 0 1 10.096 10.11z"
      />
      <path
        fill="#262626"
        d="M23.8 15c0 4.87-3.96 8.83-8.83 8.83S6.14 19.87 6.14 15s3.96-8.83 8.83-8.83c2.37 0 4.62.946 6.27 2.62l-1.66.952 5.04 2.29.576-5.51-1.69.971a11.338 11.338 0 0 0-8.54-3.86c-6.27 0-11.4 5.1-11.4 11.4 0 6.27 5.1 11.4 11.4 11.4 6.27 0 11.4-5.1 11.4-11.4z"
      />
      <path
        fill="#262626"
        d="M21.3 8.79a8.847 8.847 0 0 0-6.27-2.62V3.63a11.36 11.36 0 0 1 8.53 3.86l1.69-.97-.576 5.51h-.001l-5.04-2.28zM26.4 15c0 6.27-5.1 11.4-11.4 11.4v-2.54c4.87-.005 8.82-3.96 8.82-8.83zM8.58 18.2c0-.366.028-.696.085-.993a2.68 2.68 0 0 1 .298-.822c.142-.252.337-.487.585-.707s.562-.434.944-.646c.333-.178.627-.335.883-.469.256-.134.47-.258.64-.371.17-.114.3-.229.39-.348a.658.658 0 0 0 .134-.408.812.812 0 0 0-.292-.627c-.195-.175-.475-.262-.84-.262-.195 0-.374.026-.536.08a2.045 2.045 0 0 0-.457.212c-.142.09-.272.19-.39.298-.118.11-.225.225-.323.347l-1.05-1.21a2.7 2.7 0 0 1 .451-.372c.195-.134.424-.26.688-.378a5.01 5.01 0 0 1 .877-.292 4.398 4.398 0 0 1 1.03-.116c.414 0 .784.051 1.11.152.325.102.6.244.822.427.223.183.394.402.512.658s.177.534.177.834c0 .284-.053.536-.158.756-.106.22-.24.414-.402.585s-.339.32-.53.445a7.72 7.72 0 0 1-.554.335l-.5.28a7.487 7.487 0 0 0-.554.348 5.809 5.809 0 0 0-.506.39 1.81 1.81 0 0 0-.353.396h3.69v1.47z"
      />
      <path
        fill="#262626"
        d="M18.8 19.7v-1.82h-3.56v-1.45l4.08-5.24h1.11v5.23h1.07v1.46h-1.07v1.82zm-1.92-3.28h2.11v-2.75z"
      />
    </symbol>

    <!-- section about -->

    <symbol id="icon-about-1" viewBox="0 0 50 50">
      <path
        d="M13.3 12.4A18.65 18.65 0 0 1 25 8.3c4.43 0 8.5 1.53 11.7 4.1l3.03-3.03 2.95 2.95-3.03 3.03c2.2 2.76 3.58 6.08 3.98 9.59a18.59 18.59 0 0 1-1.73 10.2 18.773 18.773 0 0 1-6.92 7.75 18.727 18.727 0 0 1-19.96 0 18.712 18.712 0 0 1-6.92-7.75 18.65 18.65 0 0 1-1.73-10.2c.397-3.51 1.78-6.83 3.98-9.59l-3.03-3.02 2.95-2.95 3.03 3.03v-.002zM27.1 25v-9.39l-10.4 13.6h6.25v9.38l10.4-13.5H27.1zM16.7 2.1h16.7v4.17H16.7V2.1z"
        fill="#4572E8"
      />
    </symbol>

    <symbol id="icon-about-2" viewBox="0 0 40 40">
      <path
        d="m39.3 12.3-3.31-3.31 2.49-2.49a1.17 1.17 0 0 0 0-1.657l-3.33-3.33c-.44-.439-1.22-.439-1.66 0L31 4.003 27.69.693a2.339 2.339 0 0 0-3.31 0 2.339 2.339 0 0 0 0 3.31l11.6 11.6c.915.915 2.4.915 3.31 0 .915-.915.915-2.4 0-3.31zM15.6 36 4 24.4a2.339 2.339 0 0 0-3.31 0 2.339 2.339 0 0 0 0 3.31L4 31.02 1.52 33.5a1.17 1.17 0 0 0 0 1.656l3.33 3.33c.229.229.529.343.829.343.3 0 .6-.114.829-.343l2.48-2.48 3.31 3.31c.915.915 2.4.915 3.31 0 .915-.915.915-2.4 0-3.31zM21.1 13.9l-7.11 7.14 4.97 4.97 7.11-7.14zM36 18.9 21.1 4a2.339 2.339 0 0 0-3.31 0 2.339 2.339 0 0 0 0 3.31l14.9 14.9c.915.915 2.4.915 3.31 0 .915-.915.915-2.4 0-3.31zM22.2 32.7 7.3 17.8a2.339 2.339 0 0 0-3.31 0 2.339 2.339 0 0 0 0 3.31l14.9 14.9c.915.915 2.4.915 3.31 0 .915-.915.915-2.4 0-3.31z"
        fill="#4472e8"
      />
    </symbol>

    <symbol id="icon-about-3" viewBox="0 0 50 50">
      <path
        d="M21.2 5h7.5a3.755 3.755 0 0 1 3.54 2.498h3.96a3.756 3.756 0 0 1 3.75 3.75v30a3.756 3.756 0 0 1-3.75 3.75H13.7a3.756 3.756 0 0 1-3.75-3.75v-30a3.756 3.756 0 0 1 3.75-3.75h3.96A3.755 3.755 0 0 1 21.2 5zm-1.25 3.75A1.252 1.252 0 0 0 21.2 10h7.5a1.25 1.25 0 1 0 0-2.5h-7.5a1.25 1.25 0 0 0-1.25 1.25zm11.9 14.4a1.875 1.875 0 0 0 1.879-1.879 1.875 1.875 0 0 0-1.879-1.879 1.875 1.875 0 0 0-1.879 1.879 1.875 1.875 0 0 0 1.879 1.879zm0 7.5a1.875 1.875 0 0 0 1.879-1.879 1.875 1.875 0 0 0-1.879-1.879 1.875 1.875 0 0 0-1.879 1.879 1.875 1.875 0 0 0 1.879 1.879zm-1.88 5.62a1.875 1.875 0 0 0 1.879 1.879 1.875 1.875 0 0 0 1.879-1.879 1.875 1.875 0 0 0-1.879-1.879 1.875 1.875 0 0 0-1.879 1.879zm-2.5-15a1.25 1.25 0 0 0-1.25-1.25h-8.75a1.25 1.25 0 1 0 0 2.5h8.75a1.25 1.25 0 0 0 1.25-1.25zm0 7.5a1.25 1.25 0 0 0-1.25-1.25h-8.75a1.25 1.25 0 1 0 0 2.5h8.75a1.25 1.25 0 0 0 1.25-1.25zm0 7.5a1.25 1.25 0 0 0-1.25-1.25h-8.75a1.25 1.25 0 1 0 0 2.5h8.75a1.25 1.25 0 0 0 1.25-1.25z"
        fill="#4472E8"
      />
    </symbol>

    <symbol id="icon-about-4" viewBox="0 0 40 40">
      <path
        d="M10 13.1c1.42 0 2.58-1.16 2.58-2.58 0-1.42-1.16-2.58-2.58-2.58-1.42 0-2.58 1.16-2.58 2.58 0 1.42 1.16 2.58 2.58 2.58zM10 15.4c-.519 0-1.02-.081-1.49-.231l-2.34 1.32v1.56h7.66v-1.56l-2.34-1.32c-.47.15-.971.231-1.49.231zM40 29.9v-3.84H0v3.84h16.2v3.03l-2.38 2.27h-3.29v2.34h18.8V35.2h-3.29l-2.38-2.27V29.9h16.2z"
        fill="#4472E8"
      />
      <path
        d="M40 23.7V2.4H0v21.3h40zM23.6 6.8h12.6v2.34H23.6V6.8zm0 5h10.1v2.34H23.6V11.8zm0 5h12.6v2.34H23.6V16.8zm-4.86-10h2.49v2.34h-2.49V6.8zm0 5h2.49v2.34h-2.49V11.8zm0 5h2.49v2.34h-2.49V16.8zm-14.9-1.68 2.48-1.4c-.763-.867-1.23-2-1.23-3.25a4.93 4.93 0 0 1 4.92-4.92 4.93 4.93 0 0 1 4.92 4.92c0 1.24-.464 2.38-1.23 3.25l2.48 1.4v5.27H3.88v-5.27z"
        fill="#4472E8"
      />
    </symbol>

    <!-- social -->

    <symbol id="icon-youtube" viewBox="0 0 20 14">
      <path
        fill="red"
        d="M19.6 2.18a2.533 2.533 0 0 0-.649-1.12 2.52 2.52 0 0 0-1.12-.646c-1.55-.421-7.8-.421-7.8-.421s-6.25.013-7.8.434A2.51 2.51 0 0 0 .462 2.193c-.469 2.75-.652 6.93.013 9.56.115.422.338.807.649 1.12a2.52 2.52 0 0 0 1.12.646c1.55.421 7.8.421 7.8.421s6.25 0 7.8-.421a2.51 2.51 0 0 0 1.769-1.766c.495-2.75.648-6.93-.013-9.58z"
      />
      <path fill="#fff" d="m8 9.96 5.18-2.99L8 3.98z" />
    </symbol>

    <symbol id="icon-fb" viewBox="0 0 20 20">
      <path
        fill="#3180C8"
        d="M7.54 4.89v2.29H5.86v2.8h1.68v8.32h3.44V9.98h2.31s.217-1.34.322-2.81h-2.62V5.25c0-.286.375-.671.747-.671h1.88v-2.92h-2.55c-3.62 0-3.53 2.8-3.53 3.22z"
      />
    </symbol>

    <symbol id="icon-instagram" viewBox="0 0 20 20">
      <path
        fill="#ff6262"
        d="M10 0C7.28 0 6.94.013 5.88.06 4.82.11 4.09.278 3.45.525a4.878 4.878 0 0 0-1.77 1.15 4.809 4.809 0 0 0-1.15 1.77c-.248.638-.416 1.36-.465 2.43-.05 1.07-.06 1.41-.06 4.12 0 2.72.012 3.06.06 4.12.05 1.06.218 1.79.465 2.43.251.667.645 1.27 1.15 1.77.499.509 1.1.903 1.77 1.15.638.247 1.36.416 2.43.465 1.07.05 1.41.06 4.12.06 2.72 0 3.06-.013 4.12-.06 1.06-.05 1.79-.218 2.43-.465a4.943 4.943 0 0 0 1.77-1.15c.509-.499.903-1.1 1.15-1.77.247-.638.416-1.36.465-2.43.05-1.07.06-1.41.06-4.12 0-2.72-.013-3.06-.06-4.12-.05-1.06-.218-1.79-.465-2.43a4.943 4.943 0 0 0-1.15-1.77 4.806 4.806 0 0 0-1.77-1.15C15.912.277 15.19.109 14.12.06 13.05.01 12.71 0 10 0zm0 1.8c2.67 0 2.99.013 4.04.06.975.045 1.5.207 1.86.345.468.181.8.398 1.15.747.349.35.566.682.747 1.15.137.352.3.881.344 1.86.048 1.06.058 1.37.058 4.04s-.012 2.99-.061 4.04c-.051.975-.213 1.5-.351 1.86a3.156 3.156 0 0 1-.75 1.15 3.125 3.125 0 0 1-1.15.747c-.35.137-.887.3-1.86.344-1.06.048-1.37.058-4.05.058-2.68 0-2.99-.012-4.05-.061-.975-.051-1.51-.213-1.86-.351a3.118 3.118 0 0 1-1.15-.75 3.028 3.028 0 0 1-.75-1.15c-.137-.35-.298-.887-.35-1.86-.037-1.05-.05-1.37-.05-4.04 0-2.66.013-2.99.05-4.05.052-.974.213-1.51.35-1.86.176-.474.4-.8.75-1.15a2.953 2.953 0 0 1 1.15-.747c.35-.138.877-.301 1.85-.351 1.06-.038 1.38-.05 4.05-.05zm0 3.06c-.674 0-1.34.133-1.97.391s-1.19.636-1.67 1.11-.855 1.04-1.11 1.67-.391 1.29-.391 1.97c0 .674.133 1.34.391 1.97s.636 1.19 1.11 1.67 1.04.855 1.67 1.11a5.144 5.144 0 0 0 5.6-1.109 5.144 5.144 0 0 0 0-7.26 5.138 5.138 0 0 0-3.63-1.5zm0 8.47c-1.84 0-3.33-1.49-3.33-3.33S8.16 6.67 10 6.67s3.33 1.49 3.33 3.33-1.49 3.33-3.33 3.33zm6.54-8.67a1.2 1.2 0 0 1-2.033.82 1.204 1.204 0 0 1-.367-.82 1.2 1.2 0 1 1 2.4 0z"
      />
    </symbol>
  </defs>
</svg>
